<?xml version="1.0" standalone="no"?>
<!DOCTYPE svg PUBLIC "-//W3C//DTD SVG 20010904//EN"
 "http://www.w3.org/TR/2001/REC-SVG-20010904/DTD/svg10.dtd">
<svg version="1.0" xmlns="http://www.w3.org/2000/svg"
 width="547.000000pt" height="300.000000pt" viewBox="0 0 547.000000 300.000000"
 preserveAspectRatio="xMidYMid meet">

<g transform="translate(0.000000,300.000000) scale(0.100000,-0.100000)"
fill="#000000" stroke="none">
<path d="M1020 2906 l-265 -72 -3 -67 c-2 -45 1 -67 8 -67 7 0 129 32 272 70
143 39 262 70 264 70 2 0 4 32 4 70 0 39 -3 70 -7 69 -5 0 -127 -33 -273 -73z"/>
<path d="M1025 2625 l-270 -72 -3 -71 c-2 -55 0 -71 10 -67 7 2 129 36 272 74
142 39 260 72 263 74 2 3 3 34 1 69 l-3 65 -270 -72z"/>
<path d="M0 1635 l0 -895 923 0 c516 0 966 5 1021 10 312 30 561 186 714 447
l37 63 153 0 152 0 0 125 0 125 -131 0 -130 0 -11 30 c-22 64 -91 197 -133
255 -98 137 -241 234 -411 277 -81 21 -112 23 -341 23 -138 0 -254 -2 -256 -5
-4 -4 7 -95 28 -215 l5 -30 193 3 c310 5 442 -32 568 -157 48 -49 77 -89 110
-155 l43 -88 -33 -63 c-78 -145 -229 -287 -366 -344 -104 -43 -195 -51 -617
-51 l-378 0 0 545 0 545 -110 0 -110 0 -2 -542 -3 -543 -342 -3 -343 -2 0 770
0 770 -115 0 -115 0 0 -895z"/>
<path d="M4677 2085 c-124 -17 -249 -49 -306 -78 -41 -20 -47 -28 -69 -92 -13
-38 -37 -122 -54 -185 -27 -104 -31 -134 -35 -310 -4 -184 9 -351 32 -413 7
-16 -11 -17 -316 -15 l-324 3 -3 543 -2 542 -110 0 -110 0 0 -729 c0 -776 -2
-815 -49 -924 -26 -61 -108 -148 -182 -193 l-58 -35 44 -91 c25 -50 47 -93 50
-96 12 -12 158 89 225 157 119 121 175 261 187 469 l6 102 934 0 934 0 -3 548
c-4 495 -6 552 -22 602 -35 106 -133 175 -288 200 -87 14 -362 11 -481 -5z
m528 -252 l30 -9 3 -417 2 -417 -382 2 -383 3 -18 75 c-13 53 -20 127 -24 255
-5 186 6 277 52 431 l15 52 63 11 c34 7 89 16 122 21 75 11 479 6 520 -7z"/>
<path d="M980 493 c-48 -32 -90 -77 -100 -109 -9 -27 -8 -40 6 -69 19 -41 84
-100 120 -109 33 -9 86 18 125 61 62 71 62 107 2 174 -61 67 -107 83 -153 52z"/>
</g>
</svg>
