<?xml version="1.0" standalone="no"?>
<!DOCTYPE svg PUBLIC "-//W3C//DTD SVG 20010904//EN"
 "http://www.w3.org/TR/2001/REC-SVG-20010904/DTD/svg10.dtd">
<svg version="1.0" xmlns="http://www.w3.org/2000/svg"
 width="300.000000pt" height="383.000000pt" viewBox="0 0 300.000000 383.000000"
 preserveAspectRatio="xMidYMid meet">

<g transform="translate(0.000000,383.000000) scale(0.100000,-0.100000)"
fill="#000000" stroke="none">
<path d="M1421 3817 c-134 -43 -156 -224 -39 -322 30 -26 35 -27 107 -20 83 7
112 22 149 75 23 34 31 121 13 149 -10 16 -16 7 -25 -35 -11 -50 -69 -94 -125
-94 -39 0 -88 42 -100 87 -14 48 4 89 59 136 40 34 41 37 19 36 -13 -1 -39 -6
-58 -12z"/>
<path d="M1447 3414 c-35 -19 -45 -58 -23 -95 15 -25 15 -34 5 -63 -15 -42 -1
-66 38 -66 55 0 78 36 51 79 -9 15 -8 24 5 45 42 64 -11 134 -76 100z"/>
<path d="M1433 3138 c-11 -13 -30 -53 -42 -89 -33 -102 -70 -150 -261 -344
-199 -202 -223 -239 -242 -375 -23 -155 20 -285 134 -399 65 -66 136 -106 217
-121 73 -14 407 -13 473 1 132 28 262 132 321 256 28 60 32 80 35 170 7 188
-19 234 -276 504 -96 100 -182 196 -193 213 -11 17 -28 60 -39 96 -25 84 -44
110 -79 110 -16 0 -36 -10 -48 -22z"/>
<path d="M1690 3040 c0 -5 19 -33 43 -61 44 -54 174 -136 190 -120 4 4 7 32 5
62 l-3 54 -110 37 c-126 41 -125 41 -125 28z"/>
<path d="M1105 2996 c-288 -101 -477 -223 -675 -434 -390 -416 -530 -1053
-345 -1572 41 -113 138 -295 209 -390 80 -107 238 -261 336 -327 291 -196 663
-295 991 -263 253 24 481 103 689 238 341 220 561 542 653 950 29 132 32 462
4 591 -27 125 -64 235 -117 348 -48 102 -148 258 -158 248 -3 -3 -9 -254 -12
-558 l-6 -552 -33 -95 c-54 -158 -119 -259 -247 -380 -121 -115 -261 -198
-429 -254 -292 -98 -635 -62 -890 92 -71 43 -155 119 -155 140 0 28 49 100 83
120 46 29 85 32 547 42 451 9 469 11 586 71 176 89 303 252 349 449 16 65 19
143 23 610 l4 535 -108 86 c-154 122 -193 146 -205 128 -5 -8 -9 -187 -10
-399 0 -212 -4 -502 -8 -645 -8 -303 -12 -316 -110 -407 -70 -65 -132 -88
-236 -88 l-73 0 -16 74 c-34 152 -117 233 -251 244 -58 4 -72 2 -130 -27 -99
-49 -143 -115 -161 -243 -3 -27 -11 -48 -18 -48 -56 0 -197 -24 -241 -41 -71
-27 -159 -107 -204 -188 -19 -33 -38 -61 -43 -61 -13 0 -105 199 -145 316
l-38 109 1 235 c2 262 12 323 80 504 95 248 194 387 466 657 115 113 208 210
208 217 0 20 -40 13 -165 -32z m445 -1524 c51 -25 80 -74 80 -135 0 -64 -29
-109 -88 -138 -118 -58 -241 46 -211 179 20 91 131 139 219 94z"/>
</g>
</svg>
